<?xml version="1.0" standalone="no"?>
<!DOCTYPE svg PUBLIC "-//W3C//DTD SVG 20010904//EN"
 "http://www.w3.org/TR/2001/REC-SVG-20010904/DTD/svg10.dtd">
<svg version="1.0" xmlns="http://www.w3.org/2000/svg"
 width="1024.000000pt" height="1024.000000pt" viewBox="0 0 1024.000000 1024.000000"
 preserveAspectRatio="xMidYMid meet">

<g transform="translate(0.000000,1024.000000) scale(0.100000,-0.100000)"
fill="#000000" stroke="none">
<path d="M3487 8451 c-100 -64 -157 -193 -165 -378 -3 -60 0 -114 6 -133 10
-28 8 -38 -19 -86 -17 -30 -35 -54 -39 -54 -5 0 -42 26 -82 58 -40 32 -93 72
-118 89 -25 17 -83 66 -130 108 -187 170 -209 185 -274 185 -53 0 -98 -37
-124 -104 -55 -138 -77 -334 -52 -469 15 -80 62 -188 108 -248 l40 -52 -19
-55 c-24 -69 -25 -218 -4 -312 34 -145 174 -362 272 -420 57 -34 62 -44 56
-108 -9 -93 39 -228 130 -371 l35 -55 -19 -25 c-10 -14 -28 -51 -38 -81 -20
-58 -61 -310 -61 -378 0 -22 -3 -53 -6 -69 l-6 -30 -41 14 c-107 37 -355 151
-487 224 -58 32 -132 68 -164 79 -57 19 -60 19 -89 3 -17 -10 -39 -36 -51 -58
-18 -35 -21 -56 -20 -155 1 -63 7 -137 13 -165 20 -85 94 -224 163 -303 l63
-74 -3 -97 c-5 -138 20 -215 115 -348 50 -72 87 -102 175 -146 l63 -32 6 -66
c9 -112 104 -260 209 -328 44 -28 165 -74 255 -96 6 -2 19 -28 28 -59 30 -95
139 -191 273 -242 80 -30 264 -48 390 -39 l92 7 38 -47 c123 -147 473 -370
761 -483 510 -201 934 -232 1471 -106 434 101 914 374 1209 685 230 243 377
462 507 756 89 200 155 436 203 718 9 57 -18 40 323 200 231 107 388 194 413
227 10 13 21 42 24 64 5 42 -5 71 -102 299 -26 61 -64 151 -85 200 -68 163
-260 587 -325 720 -35 72 -86 177 -113 235 -57 123 -97 166 -146 156 -17 -4
-87 -33 -156 -66 -118 -55 -670 -304 -955 -430 -214 -95 -249 -110 -280 -125
-16 -7 -33 -11 -37 -9 -4 3 -8 1 -8 -4 0 -7 -62 -42 -76 -42 -3 0 -4 21 -2 47
3 49 25 71 35 35 3 -11 11 -23 18 -26 19 -7 75 16 75 31 0 7 5 13 10 13 6 0
10 5 10 11 0 5 -4 7 -10 4 -5 -3 -10 3 -10 14 0 11 -9 22 -20 26 -11 4 -20 15
-20 27 0 20 -34 58 -53 58 -6 0 -6 5 0 13 6 6 13 27 16 45 4 18 20 53 37 77
33 47 44 56 33 28 -4 -11 2 -9 14 7 12 14 17 28 12 31 -6 3 7 17 28 31 85 56
134 74 283 103 129 25 189 45 200 64 12 24 4 94 -16 133 -35 68 -115 138 -214
188 -52 26 -119 55 -147 64 -46 15 -55 23 -71 59 -66 146 -268 315 -455 380
-86 30 -101 32 -232 31 -127 0 -148 -2 -225 -28 -102 -34 -228 -96 -292 -143
-90 -66 -216 -224 -308 -388 -18 -33 -57 -116 -86 -185 -44 -106 -56 -127 -80
-135 -20 -7 -28 -7 -31 3 -3 6 -10 12 -17 12 -6 0 -29 12 -50 26 -21 14 -68
41 -104 59 -37 18 -97 53 -134 77 -37 23 -95 59 -128 78 -58 32 -188 132 -365
280 -124 104 -409 395 -484 495 -38 50 -95 128 -128 175 -94 134 -147 157
-236 101z m148 -256 c37 -49 100 -128 139 -175 262 -315 750 -730 1051 -895
79 -43 184 -115 168 -115 -6 0 -84 30 -174 66 -90 37 -236 95 -324 129 -492
191 -508 201 -704 396 -144 144 -236 256 -276 335 -24 48 -29 69 -29 138 0 44
5 100 12 122 13 43 49 97 62 92 4 -2 38 -43 75 -93z m-809 -262 c181 -151 323
-253 503 -361 271 -162 692 -365 991 -477 136 -51 487 -195 653 -269 85 -37
264 -147 380 -234 180 -132 407 -379 407 -441 0 -14 -13 -27 -40 -41 -26 -13
-40 -27 -40 -40 0 -11 24 -68 54 -128 30 -60 68 -142 85 -183 16 -41 44 -105
61 -144 85 -185 331 -759 347 -810 9 -27 4 -36 -68 -125 -235 -290 -570 -535
-956 -699 -188 -79 -337 -126 -463 -145 -58 -8 -186 -32 -285 -51 -162 -33
-206 -38 -435 -47 -140 -5 -289 -7 -331 -4 -94 6 -172 35 -228 82 -46 40 -80
94 -59 94 38 1 221 31 268 45 176 52 284 101 342 155 39 37 40 41 26 62 -25
37 -72 34 -185 -11 -287 -116 -591 -133 -773 -44 -78 38 -151 114 -177 186
-13 37 -17 57 -9 57 6 0 49 -5 96 -10 98 -11 349 -14 429 -5 83 10 199 42 237
66 42 25 55 66 29 86 -22 16 -66 17 -132 3 -143 -30 -491 -27 -632 5 -159 37
-307 139 -359 246 -24 49 -47 153 -37 169 4 6 25 0 53 -14 63 -32 290 -103
404 -127 99 -20 347 -36 391 -25 35 8 62 58 47 86 -13 24 -23 26 -165 40 -196
19 -410 74 -571 145 -70 31 -188 112 -241 167 -53 55 -110 148 -129 214 -20
69 -33 184 -21 184 5 0 73 -33 151 -74 257 -135 666 -285 956 -350 340 -75
374 -80 665 -80 295 -1 329 3 442 55 37 17 96 42 131 56 84 34 84 59 0 69
-208 24 -275 40 -255 60 3 3 91 15 194 25 303 30 395 50 458 102 42 34 60 67
70 124 6 40 5 43 -20 49 -42 10 -143 -4 -256 -35 -208 -58 -363 -84 -504 -84
-278 0 -453 63 -552 197 -78 106 -96 96 169 89 219 -5 238 -4 323 17 109 27
171 56 199 93 15 21 18 32 10 44 -21 34 -40 38 -111 24 -92 -19 -401 -25 -538
-12 -146 14 -303 53 -392 97 -162 80 -303 253 -303 371 0 20 4 24 18 18 99
-39 365 -113 487 -135 33 -6 132 -13 220 -17 l160 -6 38 35 c42 40 51 90 20
103 -10 4 -79 11 -153 16 -74 5 -148 11 -165 14 -183 29 -245 41 -344 70 -244
70 -349 126 -470 246 -93 93 -148 201 -164 317 -6 51 -7 92 -1 113 l9 32 45
-38 c84 -71 224 -157 375 -230 201 -98 357 -148 497 -162 62 -5 68 -4 92 20
32 32 33 62 4 81 -13 7 -77 30 -143 51 -244 75 -514 206 -690 335 -93 68 -207
188 -253 265 -56 96 -75 175 -69 290 4 88 30 195 46 195 4 0 66 -48 137 -107z
m3474 -94 c179 -49 323 -172 414 -352 l31 -61 131 -56 c72 -31 146 -66 165
-78 l34 -22 -36 0 c-61 0 -189 -38 -257 -76 -125 -70 -240 -216 -285 -359 -26
-83 -40 -198 -35 -294 l4 -90 -68 -31 c-38 -16 -70 -30 -72 -30 -3 0 -42 -18
-88 -39 -149 -70 -286 -130 -310 -136 -20 -5 -27 0 -45 37 -36 75 -196 280
-274 351 -41 38 -121 100 -179 139 -147 99 -159 112 -150 151 7 35 86 245 148
397 97 239 265 435 438 511 134 60 303 75 434 38z m-2770 -191 c0 -4 -24 6
-52 23 -77 45 -79 48 -67 71 10 19 14 17 65 -33 30 -29 54 -57 54 -61z m4476
-816 c-117 -256 -297 -598 -451 -857 -42 -71 -90 -156 -106 -187 -16 -32 -38
-62 -49 -68 -23 -12 -112 5 -435 84 -99 24 -232 56 -295 72 -134 32 -624 169
-641 179 -6 4 17 19 52 34 35 15 118 52 184 83 252 117 380 175 685 310 173
77 404 180 512 229 109 49 199 89 201 89 10 0 373 162 381 170 29 28 17 -16
-38 -138z m243 -132 c41 -79 169 -355 303 -650 110 -243 109 -240 101 -240 -5
0 -71 20 -148 44 -77 23 -263 80 -412 126 -150 46 -273 87 -273 90 0 4 22 44
49 89 27 45 111 208 187 361 87 174 142 274 147 267 4 -7 25 -46 46 -87z
m-1574 30 c3 -6 -1 -7 -9 -4 -18 7 -21 14 -7 14 6 0 13 -4 16 -10z m1386 -930
c151 -45 338 -101 415 -126 78 -24 156 -47 173 -50 17 -4 33 -10 36 -14 2 -4
-53 -33 -123 -65 -70 -32 -226 -107 -347 -166 -307 -150 -756 -358 -1238 -575
-103 -46 -218 -99 -255 -118 -85 -43 -144 -67 -139 -58 27 53 192 423 287 647
112 264 137 315 156 315 7 0 80 -15 161 -32 81 -18 176 -33 210 -33 88 0 118
27 215 196 42 74 82 142 88 153 16 25 35 21 361 -74z m-2030 51 c35 -11 120
-34 189 -50 153 -37 247 -62 410 -107 69 -18 138 -35 153 -36 27 -2 28 -5 22
-38 -9 -47 -123 -331 -225 -560 -45 -102 -92 -209 -104 -237 -19 -48 -36 -68
-36 -43 0 13 -91 226 -168 395 -182 397 -314 695 -308 695 2 0 32 -9 67 -19z
m1989 -813 c0 -41 -9 -76 -71 -268 -77 -236 -152 -405 -264 -595 -151 -255
-401 -520 -673 -714 -99 -70 -270 -164 -284 -155 -6 4 -8 3 -5 -3 8 -13 -20
-26 -35 -16 -6 3 -8 1 -5 -4 10 -16 -19 -24 -45 -13 l-23 9 23 0 c12 1 22 7
22 15 0 9 -18 16 -50 20 -41 5 -50 10 -50 26 0 13 -7 20 -20 20 -13 0 -20 7
-20 20 0 13 -7 20 -20 20 -13 0 -20 7 -20 20 0 11 5 20 10 20 6 0 10 14 10 31
0 31 -19 59 -40 59 -6 0 -25 7 -41 16 -28 14 -34 14 -71 -1 -22 -9 -43 -14
-45 -11 -2 2 6 7 19 11 90 28 406 207 416 236 2 5 10 9 18 9 8 0 14 4 14 8 0
5 15 16 33 25 29 15 30 16 7 14 -19 -2 -26 3 -28 21 -4 23 -2 23 -132 26 -104
3 -215 18 -238 32 -15 10 -34 13 -57 8 -31 -5 -35 -4 -35 14 0 16 -9 22 -40
27 -25 4 -40 12 -40 21 0 8 -4 14 -10 14 -5 0 -10 9 -10 20 0 20 -13 25 -60
21 l-25 -2 25 14 c17 9 27 10 32 3 5 -7 8 -5 8 5 0 9 19 29 43 44 52 35 278
266 274 280 -3 8 122 75 139 75 3 0 30 11 60 25 30 14 57 25 60 25 2 0 111 49
242 109 130 60 316 143 412 186 96 43 209 94 250 115 42 21 112 52 155 69 44
18 100 43 125 56 58 31 60 31 60 -7z"/>
<path d="M6174 7586 c-76 -33 -108 -152 -62 -230 76 -130 267 -82 284 70 14
124 -106 210 -222 160z"/>
<path d="M5495 2115 c-22 -8 -48 -15 -58 -15 -23 0 -47 -23 -47 -44 0 -14 22
-16 165 -16 91 0 165 -3 165 -7 0 -5 45 -8 100 -8 l100 0 0 41 0 41 -142 7
c-79 3 -165 9 -193 11 -31 3 -65 0 -90 -10z"/>
<path d="M5225 2110 c-30 -8 -30 -8 8 -9 28 -1 44 -8 62 -28 20 -23 24 -25 25
-10 0 9 -4 17 -10 17 -5 0 -10 6 -10 14 0 8 -7 17 -16 20 -17 7 -17 7 -59 -4z"/>
<path d="M6132 2060 c0 -14 2 -19 5 -12 2 6 2 18 0 25 -3 6 -5 1 -5 -13z"/>
</g>
</svg>
